<svg width="24" height="24" viewBox="0 0 24 24" fill="none" xmlns="http://www.w3.org/2000/svg">
<path fill-rule="evenodd" clip-rule="evenodd" d="M7.50003 8.6724V3.75H7.125C6.50369 3.75 6 3.24631 6 2.625C6 2.00369 6.50369 1.5 7.125 1.5H8.62503H15.375H16.875C17.4963 1.5 18 2.00369 18 2.625C18 3.24631 17.4963 3.75 16.875 3.75H16.5V8.6724L21.9987 17.313C23.4284 19.5598 21.8145 22.5 19.1513 22.5H4.8488C2.18562 22.5 0.571648 19.5598 2.00144 17.313L7.50003 8.6724ZM14.25 3.75H9.75003V9C9.75003 9.21396 9.68903 9.42348 9.57416 9.60399L7.09487 13.5H16.9052L14.4259 9.60399C14.3111 9.42348 14.25 9.21396 14.25 9V3.75ZM3.89969 18.5209L5.66306 15.75H18.3371L20.1005 18.5209C20.577 19.2699 20.039 20.25 19.1513 20.25H4.8488C3.96107 20.25 3.42308 19.2699 3.89969 18.5209Z" fill="#24292E"/>
</svg>
