<svg width="24" height="24" viewBox="0 0 24 24" fill="none" xmlns="http://www.w3.org/2000/svg">
<path d="M5.83885 10.1355C3.63738 10.659 2 12.6383 2 15C2 17.7614 4.23857 20 7 20C7.4737 20 7.932 19.9342 8.36625 19.8111M18.0273 10.1355C20.2288 10.659 21.8662 12.6383 21.8662 15C21.8662 17.7614 19.6276 20 16.8662 20C16.3925 20 15.9342 19.9342 15.5 19.8111M18 10C18 6.6863 15.3137 4 12 4C8.6863 4 6 6.6863 6 10M8 13.4787L11.4673 10L15.0332 13.5382M12 19V12.2309" stroke="black" stroke-opacity="0.85" stroke-width="2" stroke-linecap="round" stroke-linejoin="round"/>
</svg>
