<svg width="18" height="18" viewBox="0 0 18 18" fill="none" xmlns="http://www.w3.org/2000/svg">
<path d="M2.72998 7.17C2.57682 7.0427 2.37935 6.98145 2.18103 6.99973C1.98271 7.01802 1.79978 7.11434 1.67248 7.2675C1.54517 7.42066 1.48393 7.61812 1.50221 7.81644C1.5205 8.01476 1.61681 8.1977 1.76998 8.325L2.57998 9L1.76998 9.675C1.69403 9.73796 1.63126 9.81529 1.58524 9.90255C1.53923 9.98981 1.51088 10.0853 1.50182 10.1835C1.49277 10.2818 1.50318 10.3808 1.53246 10.475C1.56175 10.5692 1.60933 10.6567 1.67248 10.7325C1.73544 10.8084 1.81276 10.8712 1.90003 10.9172C1.98729 10.9632 2.08277 10.9916 2.181 11.0007C2.27923 11.0097 2.37829 10.9993 2.47249 10.97C2.56669 10.9407 2.65419 10.8932 2.72998 10.83L4.22998 9.5775C4.31491 9.50712 4.38327 9.41888 4.43019 9.31906C4.47712 9.21924 4.50144 9.1103 4.50144 9C4.50144 8.8897 4.47712 8.78076 4.43019 8.68094C4.38327 8.58112 4.31491 8.49288 4.22998 8.4225L2.72998 7.17ZM6.74998 3.75C6.55107 3.75 6.3603 3.82902 6.21965 3.96967C6.079 4.11032 5.99998 4.30109 5.99998 4.5V13.5C5.99998 13.6989 6.079 13.8897 6.21965 14.0303C6.3603 14.171 6.55107 14.25 6.74998 14.25C6.94889 14.25 7.13966 14.171 7.28031 14.0303C7.42096 13.8897 7.49998 13.6989 7.49998 13.5V4.5C7.49998 4.30109 7.42096 4.11032 7.28031 3.96967C7.13966 3.82902 6.94889 3.75 6.74998 3.75ZM9.74998 5.25H15.75C15.9489 5.25 16.1397 5.17098 16.2803 5.03033C16.421 4.88968 16.5 4.69891 16.5 4.5C16.5 4.30109 16.421 4.11032 16.2803 3.96967C16.1397 3.82902 15.9489 3.75 15.75 3.75H9.74998C9.55107 3.75 9.3603 3.82902 9.21965 3.96967C9.079 4.11032 8.99998 4.30109 8.99998 4.5C8.99998 4.69891 9.079 4.88968 9.21965 5.03033C9.3603 5.17098 9.55107 5.25 9.74998 5.25V5.25ZM15.75 12.75H9.74998C9.55107 12.75 9.3603 12.829 9.21965 12.9697C9.079 13.1103 8.99998 13.3011 8.99998 13.5C8.99998 13.6989 9.079 13.8897 9.21965 14.0303C9.3603 14.171 9.55107 14.25 9.74998 14.25H15.75C15.9489 14.25 16.1397 14.171 16.2803 14.0303C16.421 13.8897 16.5 13.6989 16.5 13.5C16.5 13.3011 16.421 13.1103 16.2803 12.9697C16.1397 12.829 15.9489 12.75 15.75 12.75ZM15.75 6.75H9.74998C9.55107 6.75 9.3603 6.82902 9.21965 6.96967C9.079 7.11032 8.99998 7.30109 8.99998 7.5C8.99998 7.69891 9.079 7.88968 9.21965 8.03033C9.3603 8.17098 9.55107 8.25 9.74998 8.25H15.75C15.9489 8.25 16.1397 8.17098 16.2803 8.03033C16.421 7.88968 16.5 7.69891 16.5 7.5C16.5 7.30109 16.421 7.11032 16.2803 6.96967C16.1397 6.82902 15.9489 6.75 15.75 6.75ZM15.75 9.75H9.74998C9.55107 9.75 9.3603 9.82902 9.21965 9.96967C9.079 10.1103 8.99998 10.3011 8.99998 10.5C8.99998 10.6989 9.079 10.8897 9.21965 11.0303C9.3603 11.171 9.55107 11.25 9.74998 11.25H15.75C15.9489 11.25 16.1397 11.171 16.2803 11.0303C16.421 10.8897 16.5 10.6989 16.5 10.5C16.5 10.3011 16.421 10.1103 16.2803 9.96967C16.1397 9.82902 15.9489 9.75 15.75 9.75Z" fill="black"/>
</svg>
